<svg xmlns="http://www.w3.org/2000/svg" width="100" height="100" fill="none" viewBox="0 0 100 100">
  <rect width="82" height="97" x="8.5" y="1.5" fill="#EC5990" stroke="#fff" stroke-width="3"
    rx="7.5" />
  <path fill="#fff"
    d="M70.552 18.168H57.14a7.427 7.427 0 0 0-14.151 0H29.568A9.568 9.568 0 0 0 20 27.735v49.848a9.568 9.568 0 0 0 9.568 9.568h40.984a9.568 9.568 0 0 0 9.568-9.568V27.735a9.568 9.568 0 0 0-9.568-9.567Zm-26.894 1.74a.87.87 0 0 0 .87-.688 5.689 5.689 0 0 1 11.116 0 .87.87 0 0 0 .87.687h4.68v5.697a2.61 2.61 0 0 1-2.61 2.61H41.579a2.61 2.61 0 0 1-2.609-2.61v-5.697h4.688ZM78.38 77.582a7.828 7.828 0 0 1-7.828 7.828H29.568a7.828 7.828 0 0 1-7.828-7.828V27.735a7.828 7.828 0 0 1 7.828-7.828h7.663v5.697a4.349 4.349 0 0 0 4.349 4.35h16.96a4.349 4.349 0 0 0 4.35-4.35v-5.697h7.662a7.828 7.828 0 0 1 7.828 7.828v49.848Z" />
  <path fill="#fff"
    d="M68.847 46.523H53.54a.87.87 0 1 0 0 1.74h15.308a.87.87 0 1 0 0-1.74Zm-25.225.069H28.314a.87.87 0 0 0 0 1.74h15.308a.87.87 0 0 0 0-1.74Z" />
  <path fill="#fff"
    d="M68.847 46.523H53.54a.87.87 0 1 0 0 1.74h15.308a.87.87 0 1 0 0-1.74Zm-.436 20.501H53.06a.87.87 0 0 0 0 1.74h15.352a.87.87 0 0 0 0-1.74Z" />
  <path fill="#fff"
    d="M68.411 67.024H53.06a.87.87 0 0 0 0 1.74h15.352a.87.87 0 0 0 0-1.74Zm-24.745-.427H28.314a.87.87 0 0 0 0 1.74h15.352a.87.87 0 0 0 0-1.74Z" />
</svg>