<svg xmlns="http://www.w3.org/2000/svg" width="120" height="115" fill="none" viewBox="0 0 120 115">
    <path fill="#3B82F6"
        d="M9.323 45.201c-.59-1.701-.23-2.552 1.08-2.552h5.855c1.004 0 1.658.557 1.963 1.669l4.94 18.288c.24.85.447 1.952.622 3.304.196 1.33.294 2.18.294 2.551h.196c.262-1.156.448-2.072.557-2.748.13-.697.469-2.039 1.014-4.023l4.678-17.372c.305-1.112.96-1.669 1.963-1.669h5.856c1.287 0 1.646.851 1.08 2.552L28.394 78.374c-1.286 3.882-2.867 6.914-4.743 9.095-1.876 2.18-4.482 3.271-7.819 3.271-1.832 0-3.468-.152-4.907-.458-.829-.174-1.145-.741-.949-1.7l.72-3.6c.196-.937.752-1.265 1.668-.981.676.218 1.309.327 1.898.327 1.766 0 3.108-.84 4.024-2.519.937-1.68 1.559-3.119 1.864-4.318l.1-.491L9.323 45.201Zm34.449 17.535V44.612c0-1.308.654-1.963 1.962-1.963h5.235c1.308 0 1.963.655 1.963 1.963v15.769c0 4.754.327 7.753.981 8.996.654 1.244 2.028 1.865 4.122 1.865 2.225 0 3.915-.883 5.071-2.65 1.156-1.788 1.734-5.485 1.734-11.09v-12.89c0-1.308.654-1.963 1.963-1.963h5.234c1.309 0 1.963.655 1.963 1.963v30.425C74 76.346 73.346 77 72.037 77h-5.169c-1.308 0-1.963-.654-1.963-1.963V73.14h-.13c-1.004 1.723-2.28 2.911-3.828 3.566-1.549.632-3.38.948-5.496.948-3.337 0-6.118-1.068-8.343-3.206-2.224-2.137-3.336-6.041-3.336-11.712Zm41.09 27.35c-1.31 0-1.964-.654-1.964-1.963v-43.51c0-1.31.655-1.964 1.963-1.964h5.17c1.09 0 1.679.655 1.766 1.963l.13 1.898h.132c1.134-1.876 2.399-3.097 3.794-3.664 1.396-.567 3.076-.85 5.039-.85 5.125 0 8.724 1.777 10.796 5.332 2.093 3.533 3.14 7.698 3.14 12.497 0 4.798-1.047 8.974-3.14 12.53-2.072 3.533-5.671 5.3-10.796 5.3-1.963 0-3.643-.284-5.038-.851-1.396-.567-2.661-1.789-3.795-3.664h-.131c.087.872.13 1.744.13 2.617v12.366c0 1.309-.654 1.963-1.962 1.963H84.86Zm7.197-28.79c0 2.945.578 5.344 1.734 7.198 1.177 1.832 2.584 2.748 4.22 2.748 2.944 0 4.863-1.025 5.758-3.075.916-2.072 1.374-4.853 1.374-8.342 0-3.49-.458-6.26-1.374-8.31-.895-2.072-2.814-3.108-5.758-3.108-1.636 0-3.043.927-4.22 2.781-1.156 1.832-1.734 4.22-1.734 7.164v2.945Z" />
</svg>